<?xml version="1.0" encoding="UTF-8"?><svg xmlns="http://www.w3.org/2000/svg" viewBox="0 0 1104.19 1080"><defs><style>.cls-1{fill:#d6cabc;}.cls-2{fill:#dacebf;}.cls-3{fill:#d4c9bb;}.cls-4{mix-blend-mode:multiply;opacity:.8;}.cls-5{fill:#c2b5a8;}.cls-6{isolation:isolate;}.cls-7{fill:#fff;}.cls-8{fill:#a39383;}.cls-9{fill:#c79b61;}.cls-10{fill:#d8cbbe;}.cls-11{fill:#cbbdae;}.cls-12{fill:#beb1a3;}.cls-13{fill:#e9e1d4;}.cls-14{fill:#e2d6c7;}.cls-15{fill:#e0d6c9;}.cls-16{fill:#c9c0b1;}.cls-17{fill:#f3ede4;}</style></defs><g class="cls-6"><g id="Layer_1"><g class="cls-4"><polygon class="cls-10" points="201.28 355.28 284.74 543.25 412.71 403.96 201.28 355.28"/><polygon class="cls-13" points="201.28 355.28 429.4 205.05 412.71 403.96 201.28 355.28"/><polygon class="cls-7" points="429.4 205.05 412.71 403.96 532.33 632.08 558.76 383.1 429.4 205.05"/><polygon class="cls-2" points="412.71 403.96 439.75 778.19 532.33 632.08 412.71 403.96"/><polygon class="cls-14" points="276.39 659.9 397.41 772.57 412.71 403.96 276.39 659.9"/><polygon class="cls-12" points="276.39 659.9 447.48 885.24 397.41 772.57 276.39 659.9"/><polygon class="cls-17" points="412.71 403.96 447.48 885.24 397.41 772.57 412.71 403.96"/><polygon class="cls-5" points="532.33 632.08 439.75 778.19 447.48 885.24 532.33 632.08"/><polygon class="cls-1" points="587.8 888.07 750.19 888.07 720.88 857.97 656.72 856.38 587.8 888.07"/><polygon class="cls-7" points="542.83 652.02 716.31 552.21 831.17 690.83 603.33 679.07 542.83 652.02"/><polygon class="cls-3" points="716.31 552.21 747.2 519.73 766.07 612.26 716.31 552.21"/><polygon class="cls-8" points="766.07 482.74 780.17 441.2 831.17 511.5 766.07 482.74"/><path class="cls-7" d="M733.44,459.16l32.63,153.1h132.13l4.73-5.66-26.86-80.34s-40.62-32.86-142.62-67.09Z"/><polygon class="cls-11" points="603.33 679.07 793.71 688.9 660.07 856.38 700.47 722.52 603.33 679.07"/><polygon class="cls-16" points="810.26 612.26 798.62 651.55 766.07 612.26 810.26 612.26"/><polygon class="cls-7" points="544.05 650.17 700.47 722.52 447.48 885.29 544.05 650.17"/><polygon class="cls-15" points="447.48 885.29 700.47 722.52 661.28 854.37 586.51 888.07 447.48 885.29"/><path class="cls-15" d="M733.44,459.16l122.01,76.55,47.47,70.89-26.86-80.34s-67.4-47.94-142.62-67.09Z"/></g><polygon class="cls-9" points="201.28 356.24 284.74 544.22 412.71 404.92 201.28 356.24"/><polygon class="cls-9" points="201.28 356.24 429.4 206.01 412.71 404.92 201.28 356.24"/><polygon class="cls-9" points="429.4 206.01 412.71 404.92 532.33 633.05 558.76 384.06 429.4 206.01"/><polygon class="cls-9" points="412.71 404.92 439.75 779.16 532.33 633.05 412.71 404.92"/><polygon class="cls-9" points="276.39 660.87 397.41 773.54 412.71 404.92 276.39 660.87"/><polygon class="cls-9" points="276.39 660.87 447.48 886.21 397.41 773.54 276.39 660.87"/><polygon class="cls-9" points="412.71 404.92 447.48 886.21 397.41 773.54 412.71 404.92"/><polygon class="cls-9" points="532.33 633.05 439.75 779.16 447.48 886.21 532.33 633.05"/><polygon class="cls-9" points="587.8 889.03 750.19 889.03 720.88 858.93 656.72 857.35 587.8 889.03"/><polygon class="cls-9" points="542.83 652.98 716.31 553.17 831.17 691.79 603.33 680.04 542.83 652.98"/><polygon class="cls-9" points="716.31 553.17 747.2 520.7 766.07 613.22 716.31 553.17"/><polygon class="cls-9" points="766.07 483.7 780.17 442.16 831.17 512.47 766.07 483.7"/><path class="cls-9" d="M733.44,460.12l32.63,153.1h132.13l4.73-5.66-26.86-80.34s-40.62-32.86-142.62-67.09Z"/><polygon class="cls-9" points="603.33 680.04 793.71 689.86 660.07 857.35 700.47 723.48 603.33 680.04"/><polygon class="cls-9" points="810.26 613.22 798.62 652.51 766.07 613.22 810.26 613.22"/><polygon class="cls-9" points="544.05 651.13 700.47 723.48 447.48 886.26 544.05 651.13"/><polygon class="cls-9" points="447.48 886.26 700.47 723.48 661.28 855.34 586.51 889.03 447.48 886.26"/><path class="cls-9" d="M733.44,460.12l122.01,76.55,47.47,70.89-26.86-80.34s-67.4-47.94-142.62-67.09Z"/><g class="cls-4"><polygon class="cls-10" points="201.28 355.28 284.74 543.25 412.71 403.96 201.28 355.28"/><polygon class="cls-13" points="201.28 355.28 429.4 205.05 412.71 403.96 201.28 355.28"/><polygon class="cls-7" points="429.4 205.05 412.71 403.96 532.33 632.08 558.76 383.1 429.4 205.05"/><polygon class="cls-2" points="412.71 403.96 439.75 778.19 532.33 632.08 412.71 403.96"/><polygon class="cls-14" points="276.39 659.9 397.41 772.57 412.71 403.96 276.39 659.9"/><polygon class="cls-12" points="276.39 659.9 447.48 885.24 397.41 772.57 276.39 659.9"/><polygon class="cls-17" points="412.71 403.96 447.48 885.24 397.41 772.57 412.71 403.96"/><polygon class="cls-5" points="532.33 632.08 439.75 778.19 447.48 885.24 532.33 632.08"/><polygon class="cls-1" points="587.8 888.07 750.19 888.07 720.88 857.97 656.72 856.38 587.8 888.07"/><polygon class="cls-7" points="542.83 652.02 716.31 552.21 831.17 690.83 603.33 679.07 542.83 652.02"/><polygon class="cls-3" points="716.31 552.21 747.2 519.73 766.07 612.26 716.31 552.21"/><polygon class="cls-8" points="766.07 482.74 780.17 441.2 831.17 511.5 766.07 482.74"/><path class="cls-7" d="M733.44,459.16l32.63,153.1h132.13l4.73-5.66-26.86-80.34s-40.62-32.86-142.62-67.09Z"/><polygon class="cls-11" points="603.33 679.07 793.71 688.9 660.07 856.38 700.47 722.52 603.33 679.07"/><polygon class="cls-16" points="810.26 612.26 798.62 651.55 766.07 612.26 810.26 612.26"/><polygon class="cls-7" points="544.05 650.17 700.47 722.52 447.48 885.29 544.05 650.17"/><polygon class="cls-15" points="447.48 885.29 700.47 722.52 661.28 854.37 586.51 888.07 447.48 885.29"/><path class="cls-15" d="M733.44,459.16l122.01,76.55,47.47,70.89-26.86-80.34s-67.4-47.94-142.62-67.09Z"/></g><path d="M201.49,356.42c21.11,45.25,44.96,95.05,64.69,140.42,6.59,15.5,13.13,31.13,19.71,46.86,0,0-2.09-.34-2.09-.34,32.65-33.91,63.94-70,95.19-105.19,10.51-11.75,21.1-23.43,31.67-35.11,0,0,1.41,4.56,1.41,4.56-60.98-13.06-149.22-35.87-210.59-51.19h0ZM201.06,356.06c63.01,13.36,150.67,30.91,212.31,46.19,2.01.43,2.81,3.09,1.37,4.55-21.44,23.12-43.13,46-64.95,68.76-9.65,10.01-23.1,24.36-32.42,34.43-10.71,11.56-21.29,23.25-31.71,35.09-.46.52-1.24.57-1.76.11-29.75-60.9-56.58-126.53-82.85-189.12h0Z"/><path d="M201,356.29c43.72-29.63,96.94-66.63,140.85-95.22,22.33-14.52,50.29-31.88,72.73-46.41,0,0,14.34-9.36,14.34-9.36.56-.38,1.42.09,1.33.79-4.05,47.32-7.06,101.91-10.77,149.33,0,0-3.84,49.76-3.84,49.76-.12,1.78-1.87,3.05-3.6,2.62-68.22-15.13-142.98-34.79-211.05-51.5h0ZM201.56,356.19c68.32,14.73,144.05,29.74,211.81,45.86,0,0-3.6,2.62-3.6,2.62,4.04-45.81,9.52-103.3,14.24-149.04,1.68-16.55,3.13-33.12,4.53-49.7,0,0,1.33.79,1.33.79,0,0-14.17,9.42-14.17,9.42-21.71,14.6-48.23,32.99-69.84,47.48-43.62,28.92-99.83,64.17-144.3,92.56h0Z"/><path d="M429.47,206.28c-3.5,47.55-6.77,102.32-10.32,149.76-1.27,16.36-2.48,32.72-3.92,49.09l-.28-1.39c28.49,54.56,59.31,117.56,88.27,171.85,7.5,14.1,22.78,42.71,30.42,56.76,0,0-2.77.53-2.77.53,3.85-41.55,7.77-83.1,12.02-124.62,2.74-28.87,8.27-80.64,11.21-108.97,0,0,1.71-15.56,1.71-15.56l.55,2.06c-41.4-57.25-85.87-121.93-126.88-179.52h0ZM429.32,205.74c42.25,56.91,90.11,119.34,131.84,176.57.45.62.63,1.35.55,2.06,0,0-1.59,15.57-1.59,15.57-2.94,28.1-8.72,80.33-11.92,108.89-4.56,41.48-9.45,82.93-14.41,124.37-.08.82-.82,1.42-1.64,1.32-.5-.06-.92-.37-1.14-.79-13.59-26.82-30.39-59.41-44.33-85.82-23.1-43.97-53.22-97.94-76.22-141.81-.23-.44-.32-.92-.28-1.39,1.34-16.78,2.91-33.57,4.42-50.36,4.35-47.3,10.24-101.3,14.71-148.61h0Z"/><path d="M412.78,405.19c4.74,59.95,10.87,128.52,15.47,188.26,4.32,60.96,7.21,124.73,12.67,185.61,0,0-2.19-.55-2.19-.55l22.64-36.85c14.13-23.13,31.16-50.56,45.54-73.53,0,0,22.94-36.66,22.94-36.66,0,0-.12,2.92-.12,2.92-39.71-74.18-78.25-154.36-116.96-229.2h0ZM412.63,404.65c39.52,74.16,83.9,152.24,122.29,227.04.51.95.42,2.07-.12,2.92,0,0-23.35,36.4-23.35,36.4-14.62,22.81-32.16,49.94-47.04,72.58,0,0-23.65,36.21-23.65,36.21-.35.56-1.1.74-1.65.37-.32-.21-.51-.56-.53-.92-3.4-61.8-9.82-126.79-14.37-188.62-4.03-59.18-7.7-126.67-11.57-185.97h0Z"/><path d="M276.67,660.81c39.89,35.32,83.36,74.59,122.47,110.85,0,0-4.29,1.76-4.29,1.76,0,0,1-23.04,1-23.04,2.57-52.18,6.53-109.09,8.3-161.2,2.04-59.39,3.43-124.94,5.78-184.38,0,0,5.22,1.42,5.22,1.42-8.33,15.98-25.19,47.78-33.66,63.66-34.03,63.47-69.61,127.99-104.83,190.93h0ZM276.11,660.91c26.59-52.66,55.2-108.32,82.66-160.72,9.74-18.92,24.08-45.44,34.17-64.47,0,0,17.32-32.11,17.32-32.11.71-1.36,2.41-1.88,3.77-1.15.97.52,1.5,1.54,1.45,2.57-2.59,59.47-6.63,124.85-9.52,184.23-2.11,44.03-3.2,94.04-4.34,138.29-.34,11.42-1.16,34.65-1.66,46.09-.05,1.41-1.24,2.51-2.64,2.45-.64-.02-1.21-.28-1.64-.69l-30.39-28.57c-28.66-27.13-60.97-58.29-89.17-85.92h0Z"/><path d="M276.58,661.07c28.84,37.8,59.04,75.24,87.72,112.68,27.83,37.27,55.14,75.3,84.37,111.54,0,0-2.56,1.52-2.56,1.52,0,0-13.11-27.91-13.11-27.91-12.49-26.86-26.17-57.14-38.35-84.15,0,0,.7.98.7.98l-14.81-13.8c-34.76-32.78-69.05-68.23-103.96-100.86h0ZM276.2,660.65c40.14,36.97,83.58,73.15,123.26,110.67.3.28.54.63.7.98,4.18,9.39,8.22,18.84,12.33,28.25,11.51,26.29,25.35,58.53,36.36,85.04.36.76.01,1.69-.78,2.02-.65.27-1.39.05-1.79-.5-27.61-38.66-57.71-76.15-86.72-113.8-27.49-36.46-56.14-76.57-83.37-112.66h0Z"/><path d="M412.7,404.64c4.85,64.8,11.5,144.14,16.7,208.79,6.9,89.82,11.44,182.98,19.58,272.66.07.82-.54,1.55-1.36,1.62-.66.06-1.25-.32-1.5-.9-16.53-36.56-35.61-76.4-51.35-113.39,3.67-120.46,12.58-248.31,17.94-368.78h0ZM412.71,405.2c-3.62,88-5.31,189.41-8.65,277.23-1,26.45-2.79,64.39-4.01,91.21,0,0-.23-1.19-.23-1.19,16.07,36.53,33.33,76.58,49.02,113.14,0,0-2.86.72-2.86.72-4.75-88.7-13.54-180.16-19.54-268.78-4.19-65.65-9.15-146.59-13.73-212.33h0Z"/><path d="M532.21,633.3c-30.16,48.25-58.89,99.89-91.17,146.67,0,0,.23-.93.23-.93,1.18,26.81,3,53.59,5.43,80.31,0,0,2.47,26.72,2.47,26.72,0,0-3.31-.42-3.31-.42,10.97-35.72,23.64-73.94,35.84-109.35,15.38-43.95,35.58-98.93,50.5-143.01h0ZM532.45,632.79c-13.87,41.98-31.26,99.12-44.95,141.79-11.97,36.64-25.29,76.08-38.41,112.17-.53,1.69-3.21,1.52-3.31-.42,0,0-1.39-26.8-1.39-26.8-.96-17.86-2.19-35.71-3.69-53.54-.74-8.91-1.62-17.82-2.48-26.72-.03-.34.06-.66.23-.93,28.33-48.83,63.39-98.16,94-145.55h0Z"/><path d="M588.08,888.97c27.69-.38,55.17-1.62,82.46-1.86,26.4.18,53.07,1.79,79.65.69,0,0-.88,2.09-.88,2.09-9.05-8.6-21.49-20.57-30.23-29.21,0,0,1.73.76,1.73.76-18.96-.17-45.51-.4-64.17-1.16,0,0,1.3-.27,1.3-.27-5.55,2.48-11.13,4.85-16.73,7.2-17.62,7.3-35.5,13.93-53.13,21.77h0ZM587.52,889.09c16.83-8.08,33.36-17.32,50.24-25.76,5.88-2.93,11.79-5.84,17.72-8.65.39-.19.81-.27,1.22-.27,10.72.13,21.44.39,32.16.77.08.04,32.08,1.22,32.16,1.25.65.03,1.23.31,1.65.75,4.8,5.1,9.56,10.24,14.25,15.44,0,0,14.14,15.55,14.14,15.55.78.73.2,2.15-.88,2.08-27.57-1.11-55.01.55-82.73.69-25.99-.18-54.38-1.43-79.93-1.86h0Z"/><path d="M543.77,651.14c40.72-24.15,86.79-51.99,127.72-75.29,12.57-7.35,31-17.12,43.92-24.25.77-.45,1.75-.26,2.29.42,32.25,41.1,66.38,81.74,100.58,121.23,0,0,7.34,8.53,7.34,8.53l7.28,8.58c1.27,1.42.06,3.88-1.85,3.68-55.44-2.22-112.84-4.75-168.18-8.19-18.9-1.29-37.9-2.13-56.74-3.83-20.44-9.85-41.99-20.94-62.35-30.88h0ZM544.33,651.11c20.48,8.94,43.16,18.41,63.45,27.31,14.78-.04,37.79,1.41,55.36,1.95,55.39,2.29,112.78,5.67,168.13,9.17,0,0-1.85,3.68-1.85,3.68,0,0-7.07-8.75-7.07-8.75-34.79-43.88-70.54-88.01-107.44-130.15,0,0,2.29.42,2.29.42-7.49,4.43-24.33,14.5-31.62,18.65-43.57,25.06-96.92,53.52-141.24,77.72h0Z"/><path d="M716.02,553.16c8.93-11.48,18.6-22.83,28.63-33.49,1.33-1.5,4-.73,4.34,1.23,1.69,7.64,2.83,15.39,3.93,23.15,2.07,15.56,5.86,30.74,10.11,45.83,2.1,7.55,3.9,15.16,5.71,22.78.67,2.73-2.91,4.57-4.72,2.42-8.74-10.01-17.41-20.42-25.4-31-7.71-10.06-15.49-20.64-22.61-30.91h0ZM716.59,553.18c18.13,18.89,35.59,37.68,51.59,58.29,0,0-4.8,2.33-4.8,2.33-3.15-15.33-4.98-30.93-7.96-46.28-2.81-15.4-8.25-30.23-11.4-45.55,0,0,4.34,1.23,4.34,1.23-10.13,10.54-20.73,20.24-31.76,30h0Z"/><path d="M816.68,492.38c-4.22-.89-8.34-2.62-12.39-4.08-7.86-3.05-15.68-6.07-23.21-9.86-3.75-1.91-7.48-3.94-11.32-5.68-.56-.19-.87-.8-.64-1.35,1.99-4.83,3.6-9.78,4.97-14.82,1.37-5.04,2.48-10.16,3.87-15.19.43-1.75,2.86-2.25,3.95-.84,6.81,8.5,13.63,17.5,19.32,26.73,5.28,8.46,10.26,17.15,15.46,25.09h0ZM816.25,492.01c-6.16-7.97-14.38-17.41-20.83-24.95-6.46-7.52-11.78-15.29-17.14-23.53,0,0,4.12-.62,4.12-.62-4.02,9.62-8.62,19.05-11.25,29.19,0,0-.64-1.35-.64-1.35,8.15,2.35,16.45,4.5,24.07,8.32,5.76,2.72,11.39,5.75,16.75,9.21.89.59,1.79,1.16,2.66,1.78.89.61,1.27,1.35,2.26,1.96h0Z"/><path d="M903.2,607.57c-1.46,1.95-2.95,4-4.52,6.06-.13.16-.3.23-.49.23-22.01.92-44.03,1.39-66.06,1.67-21.68.25-44.4.41-66.06-.1-1.06.02-1.97-.73-2.15-1.74-4.14-22.74-10.13-54.58-15.03-76.82-5.4-25.11-11.9-51.26-17.69-76.26-.46-1.9,1.79-3.56,3.45-2.41,40.42,24.81,83.58,50.69,122.94,77.05,15.07,23.19,31.06,48.79,45.62,72.33h0ZM902.64,607.54c-15.88-22-33.95-47.2-49.32-69.44,0,0,.77.75.77.75-40.29-24.35-82.33-51.2-121.86-76.79,0,0,3.45-2.41,3.45-2.41,4.9,25.18,9.65,51.72,14.94,76.84,4.39,22.22,12.33,53.92,17.61,76.28,0,0-2.15-1.74-2.15-1.74,15.89-.36,33.56-.41,49.55-.26,27.53.19,55.06.68,82.58,1.82,0,0-.49.23-.49.23,0,0,4.93-5.27,4.93-5.27h0Z"/><path d="M606.67,680.15c44.39,1.93,95.2,2.67,139.73,4.85,13.58.52,33.69,2.1,47.4,3.02,1.46.01,2.33,1.88,1.34,2.99-45.18,52.82-88.73,111.38-131.79,165.99-1.76,2.21-5.49.43-4.63-2.42,0,0,9.56-33.03,9.56-33.03,9.52-33.05,19.54-65.95,29.72-98.79,0,0,1.38,3.06,1.38,3.06-30.64-14.46-62.13-31.16-92.71-45.65h0ZM607.22,680.29c22.69,10.32,48.5,20.94,71.32,30.74,7.68,3.34,15.35,6.69,22.99,10.12,1.16.52,1.74,1.81,1.4,3-9.42,33.09-19,66.14-29.08,99.04,0,0-10.04,32.89-10.04,32.89,0,0-4.63-2.42-4.63-2.42,31.94-39.67,69.22-82.97,100.69-123.02,10.94-13.86,21.62-27.94,32.39-41.94,0,0,1.34,2.99,1.34,2.99-13.42-.34-32.79-1.08-45.98-1.8-45.16-2.49-95.13-6.97-140.41-9.61h0Z"/><path d="M810.48,613.05c-2.15,13.27-4.8,27.42-10.21,39.95-.27.98-1.27,1.64-2.26,1.22-.31-.13-.56-.34-.73-.61-2.35-3.57-4.76-7.1-7.47-10.38-5.32-6.65-11.72-12.39-17.49-18.63-2.86-3.15-5.7-6.32-8.5-9.52-1.66-1.82-.2-4.89,2.24-4.77,14.87-.53,29.89,1.05,44.42,2.74h0ZM810.03,613.39c-14.39,1.26-29.71,3.33-43.97,2.74,0,0,2.24-4.77,2.24-4.77,2.62,3.35,5.2,6.73,7.77,10.12,5.06,6.83,9.51,14.19,15.06,20.65,2.72,3.27,5.74,6.29,8.81,9.26l-2.99.61c2.06-13.3,8.09-26.12,13.08-38.62h0Z"/><path d="M543.95,650.86c36.74,16.01,81.75,35.5,118,52.12,13.22,5.99,26.43,12.07,39.54,18.27,1.24.57,1.78,2.04,1.2,3.27-.2.43-.53.78-.9,1.02-10.58,6.72-21.27,13.27-31.93,19.87-31.14,19.1-65.04,40.31-95.35,60.29-40.51,26.79-84.61,56.4-125.53,82.89-1.29.84-3.01.48-3.84-.81-.52-.8-.58-1.77-.24-2.59,31.25-78.07,65.47-157.38,99.04-234.33h0ZM544.15,651.39c-30.39,78.56-61.4,158.34-94.1,235.92,0,0-4.08-3.4-4.08-3.4,15.84-10.12,47.68-30.18,63.6-40.14,63.96-38.92,127.39-80.58,189.56-122.36,0,0,.3,4.29.3,4.29-50.5-22.96-105.29-49.74-155.28-74.31h0Z"/><path d="M447.21,886.33c48.87-32.17,107.45-72.19,156.73-102.81,31.2-19.26,65.66-40.8,95.93-60.95.5-.33,1.17-.19,1.5.31.18.28.22.62.13.92-11.96,42.99-24.94,89.54-37.5,132.36-.24.83-.83,1.46-1.56,1.79,0,0-18.63,8.55-18.63,8.55-17.39,7.9-38.65,17.47-56.12,25.17-.4.18-.83.26-1.24.25-11.82-.29-23.64-.73-35.46-1.14-34.45-1.33-69.39-3.35-103.79-4.43h0ZM447.75,886.17c46.18.42,92.76-.72,138.81-.02,0,0-1.24.25-1.24.25,0,0,18.64-8.53,18.64-8.53,17.24-7.85,38.7-17.47,56.13-25.14,0,0-1.56,1.79-1.56,1.79,12.86-42.72,27.42-88.82,40.88-131.35,0,0,1.63,1.22,1.63,1.22-30.62,18.99-63.76,41.03-93.8,61.13-48.16,32-110.14,69.63-159.5,100.66h0Z"/><path d="M903.04,607.81c-15.79-22.95-34.21-46.54-49.66-69.76,0,0,.74.72.74.72-10.24-6.26-20.35-12.73-30.4-19.3-20.04-13.23-39.81-26.87-60.25-39.49-10.16-6.39-20.47-12.55-30.78-18.69-.66-.39-.88-1.25-.48-1.91.33-.55.98-.79,1.57-.63,12.9,2.99,25.67,6.68,38.15,11.16,24.92,9.06,48.97,20.46,71.98,33.6,11.5,6.64,22.72,13.66,33.55,21.38,0,0,.18.14.18.14-.03-.03-.07-.05-.11-.07l1.06,1.38c8.82,26.92,15.76,54.64,24.45,81.45h0ZM902.79,607.3c-9.13-26.81-20.12-52.59-29.3-79.24,0,0,1.06,1.38,1.06,1.38-.12-.08-.24-.17-.35-.26,0,0,.18.14.18.14-10.88-7.28-22.13-14.03-33.49-20.54-22.75-13.03-46.22-24.85-70.62-34.48-12.18-4.85-24.52-9.33-37.18-12.83,0,0,1.09-2.54,1.09-2.54,20.01,13.28,40.25,26.19,60.96,38.35,20.86,12.5,42.33,24.3,62.38,38,15.8,23.56,29.62,48.24,45.28,72.02h0Z"/></g></g></svg>